<svg t="1696733044848" class="icon" viewBox="0 0 1024 1024" version="1.1" xmlns="http://www.w3.org/2000/svg" p-id="2947" width="200" height="200"><path d="M485.973333 298.666667a171.221333 171.221333 0 0 1-4.864-9.002667l-26.368-52.736A42.666667 42.666667 0 0 0 416.597333 213.333333H213.333333a42.666667 42.666667 0 0 0-42.666666 42.666667v469.333333a85.333333 85.333333 0 0 0 85.333333 85.333334h512a85.333333 85.333333 0 0 0 85.333333-85.333334v-256a85.333333 85.333333 0 0 0-85.333333-85.333333H298.666667a42.666667 42.666667 0 1 1 0-85.333333h187.306666zM938.666667 469.333333v256a170.666667 170.666667 0 0 1-170.666667 170.666667H256a170.666667 170.666667 0 0 1-170.666667-170.666667V256a128 128 0 0 1 128-128h203.264a128 128 0 0 1 114.474667 70.741333l26.368 52.736A85.333333 85.333333 0 0 0 633.813333 298.666667H768a170.666667 170.666667 0 0 1 170.666667 170.666666z" p-id="2948"></path></svg>
