<svg width="962" height="962" xmlns="http://www.w3.org/2000/svg" stroke="null"
     style="vector-effect: non-scaling-stroke;" class="icon">

    <g stroke="null">
        <title stroke="null">background</title>
        <rect stroke="null" fill="none" id="canvas_background" height="964" width="964" y="-1" x="-1"/>
    </g>
    <g stroke="null">
        <title stroke="null">Layer 1</title>
        <g stroke="null" id="svg_13">
            <path stroke="null" id="svg_2"
                  d="m698.844775,41.384789c11.961431,-7.02351 81.811677,-36.371749 104.944634,-24.080607s27.533861,32.107475 30.919172,41.012283c27.759548,73.496018 26.969642,154.140966 3.159623,238.423089c-40.059511,142.226082 -28.43661,193.021112 -28.323767,193.648211c-0.112844,-0.376259 -0.112844,-0.501679 -0.112844,-0.501679l-38.705386,14.04702c-1.805499,-6.020152 -16.023804,-63.337012 28.323767,-220.613473c20.086177,-71.363881 13.879774,-185.370502 -12.751337,-234.660494c-5.416497,-10.033586 -22.230207,-49.540831 -67.254841,26.087324c-7.447684,12.541983 -33.288889,40.134344 -30.693484,111.372805c3.272467,89.675175 -42.316385,218.481336 -5.867872,355.188946c3.159623,12.040303 -2.933936,24.582286 -13.76693,28.094041c-1.918343,0.627099 -3.836686,0.877939 -5.755028,0.877939c-8.801808,0 -16.926554,-6.396411 -19.521959,-16.179158c-37.57695,-140.971884 3.272467,-274.167739 4.175217,-368.483448c1.015593,-98.579983 39.269605,-137.334709 51.231036,-144.232799z"/>
            <path stroke="null" id="svg_3"
                  d="m848.701198,216.094606l-33.176046,-0.627099c-4.175217,-0.12542 -7.447684,-4.138854 -7.33484,-9.030227l0.338531,-23.955187c0.112844,-4.264274 2.708249,-7.776029 6.206403,-8.528548c0.451375,-0.12542 1.015593,-0.12542 1.466968,-0.12542l33.176046,0.627099c4.175217,0.12542 7.447684,4.138854 7.33484,9.030227l-0.338531,23.955187c-0.112844,4.264274 -2.708249,7.776029 -6.206403,8.528548c-0.564218,0.12542 -1.015593,0.12542 -1.466968,0.12542zm-32.950358,-33.361674l-0.338531,23.955187c0,0.501679 0.225687,0.752519 0.225687,0.752519l33.176046,0.627099c0.112844,-0.12542 0.225687,-0.376259 0.225687,-0.752519l0.338531,-23.955187c0,-0.501679 -0.225687,-0.752519 -0.225687,-0.752519l-33.176046,-0.627099s-0.225687,0.25084 -0.225687,0.752519z"/>
            <path stroke="null" id="svg_4"
                  d="m262.929592,41.384789c-11.961431,-7.02351 -81.811677,-36.371749 -104.944634,-24.080607s-27.533861,32.107475 -30.919172,41.012283c-27.759548,73.496018 -26.969642,154.140966 -3.159623,238.423089c40.059511,142.226082 28.43661,193.021112 28.323767,193.648211c0.112844,-0.376259 0.112844,-0.501679 0.112844,-0.501679l38.705386,14.04702c1.805499,-6.020152 16.023804,-63.337012 -28.323767,-220.613473c-20.086177,-71.363881 -13.879774,-185.370502 12.751337,-234.660494c5.416497,-10.033586 22.230207,-49.540831 67.254841,26.087324c7.447684,12.541983 33.288889,40.134344 30.693484,111.372805c-3.272467,89.675175 42.316385,218.481336 5.867872,355.188946c-3.159623,12.040303 2.933936,24.582286 13.76693,28.094041c1.918343,0.627099 3.836686,0.877939 5.755028,0.877939c8.801808,0 16.926554,-6.396411 19.521959,-16.179158c37.57695,-140.971884 -3.272467,-274.167739 -4.175217,-368.483448c-1.015593,-98.579983 -39.269605,-137.334709 -51.231036,-144.232799z"/>
            <path stroke="null" id="svg_5"
                  d="m661.606357,819.614807c0,3.511755 -2.595405,6.521831 -5.867872,6.521831l-328.600832,0c-3.159623,0 -5.867872,-2.884656 -5.867872,-6.521831l0,-104.976394c0,-3.511755 2.595405,-6.521831 5.867872,-6.521831l328.600832,0c3.159623,0 5.867872,2.884656 5.867872,6.521831l0,104.976394z"/>
            <path stroke="null" id="svg_6"
                  d="m103.932829,673.24987s-65.449342,28.219461 -91.516234,33.863353l18.732053,171.699741l205.601207,0c-0.225687,-0.12542 -108.555632,-195.153249 -132.817026,-205.563094z"/>
            <path stroke="null" id="svg_7"
                  d="m152.455617,480.479598s-59.807157,113.755782 -76.620867,198.915843c-5.755028,29.0974 24.261394,170.320123 115.890472,215.97294s289.669758,39.883505 288.992696,-45.652817c-1.015593,-129.934939 -51.682411,-253.473468 -152.564672,-303.265138c-100.882261,-49.791671 -151.097704,-65.970828 -175.697629,-65.970828z"/>
            <path stroke="null" id="svg_8"
                  d="m858.067225,673.24987s65.449342,28.219461 91.516234,33.863353l-18.732053,171.699741l-205.488364,0c0,-0.12542 108.329945,-195.153249 132.704182,-205.563094z"/>
            <path stroke="null" id="svg_9"
                  d="m809.431586,480.479603s59.80716,113.755777 76.620879,198.915836c5.755026,29.097401 -24.261405,170.320133 -115.890471,215.972939s-289.556926,40.008934 -288.879854,-45.52739c1.015588,-129.93495 51.682402,-253.473478 152.564672,-303.265144c100.882256,-49.917084 151.097698,-66.096241 175.584774,-66.096241z"/>
            <path stroke="null" id="svg_10"
                  d="m111.6062,215.969186c-3.498154,-0.752519 -6.093559,-4.389694 -6.206403,-8.528548l-0.338531,-23.955187c-0.112844,-4.891373 3.272467,-8.904808 7.33484,-9.030227l33.176046,-0.627099c0.451375,0 1.015593,0 1.466968,0.12542c3.498154,0.752519 6.093559,4.389694 6.206403,8.528548l0.338531,23.955187c0.112844,4.891373 -3.272467,8.904808 -7.33484,9.030227l-33.176046,0.627099c-0.451375,0 -0.90275,0 -1.466968,-0.12542zm34.191639,-33.988773l-33.176046,0.627099s-0.225687,0.25084 -0.225687,0.752519l0.338531,23.955187c0,0.501679 0.225687,0.752519 0.225687,0.752519l33.176046,-0.627099s0.225687,-0.25084 0.225687,-0.752519l-0.338531,-23.955187c0,-0.501679 -0.225687,-0.752519 -0.225687,-0.752519zm377.349307,701.723924c-20.424708,0 -39.495292,-16.680837 -39.495292,-24.331446s19.070584,-24.331446 39.495292,-24.331446c22.117364,0 39.495292,10.660685 39.495292,24.331446s-17.377929,24.331446 -39.495292,24.331446zm-411.089571,-725.929951c1.241281,3.888015 15.798117,17.935035 33.740264,17.935035c20.199021,0 33.740264,-9.281067 33.740264,-17.935035s-13.541243,-17.935035 -33.740264,-17.935035c-18.054991,0 -32.498983,14.04702 -33.740264,17.935035zm325.77974,725.929951c-22.117364,0 -39.495292,-10.660685 -39.495292,-24.331446s17.377929,-24.331446 39.495292,-24.331446c20.424708,0 39.495292,16.680837 39.495292,24.331446s-19.070584,24.331446 -39.495292,24.331446zm-325.77974,-768.071012c-20.199021,0 -33.740264,9.281067 -33.740264,17.935035s13.541243,17.935035 33.740264,17.935035c17.942147,0 32.498983,-14.04702 33.740264,-17.935035c-1.241281,-3.888015 -15.685273,-17.935035 -33.740264,-17.935035zm33.853108,18.060455zm0,-0.376259z"/>
            <path stroke="null" id="svg_11"
                  d="m451.265714,947.668449c-0.338531,0 -0.677062,0 -1.015593,-0.12542c-1.466968,-0.627099 -2.256874,-2.382977 -1.692655,-4.013434l26.856799,-84.031283c0.564218,-1.630458 2.14403,-2.508397 3.610998,-1.881297c1.466968,0.627099 2.256874,2.382977 1.692655,4.013434l-26.856799,84.031283c-0.338531,1.128778 -1.354124,2.006717 -2.595405,2.006717zm60.145688,-0.25084c-1.128437,0 -2.256874,-0.752519 -2.708249,-2.132137l-26.856799,-84.031283c-0.564218,-1.630458 0.225687,-3.511755 1.692655,-4.013434c1.466968,-0.627099 3.159623,0.25084 3.610998,1.881297l26.856799,84.031283c0.564218,1.630458 -0.225687,3.511755 -1.692655,4.013434c-0.225687,0.12542 -0.564218,0.25084 -0.90275,0.25084z"/>
            <path stroke="null" id="svg_12"
                  d="m487.375696,866.270982l-13.541243,0c-0.451375,0 -0.677062,-0.376259 -0.677062,-0.752519l0,-11.914883c0,-0.501679 0.338531,-0.752519 0.677062,-0.752519l13.541243,0c0.451375,0 0.677062,0.376259 0.677062,0.752519l0,11.914883c0.112844,0.376259 -0.225687,0.752519 -0.677062,0.752519z"/>
        </g>
    </g>
</svg>