<svg t="1696688889499" className="icon" viewBox="0 0 1024 1024" version="1.1" xmlns="http://www.w3.org/2000/svg"
     p-id="942" width="200" height="200">
  <path
    d="M215.578947 107.789474h404.210527l242.526315 242.526315v512a53.894737 53.894737 0 0 1-53.894736 53.894737H215.578947a53.894737 53.894737 0 0 1-53.894736-53.894737V161.684211a53.894737 53.894737 0 0 1 53.894736-53.894737z"
    fill="#7a8ef2" p-id="943"></path>
  <path
    d="M619.654737 134.736842l242.526316 215.578947v20.641685h-194.479158a40.205474 40.205474 0 0 1-28.483369-11.479579 53.221053 53.221053 0 0 1-19.725473-31.905684z"
    fill="#777777" p-id="944"></path>
  <path
    d="M619.789474 107.789474l242.526315 242.526315h-209.030736a44.624842 44.624842 0 0 1-26.758737-9.269894 39.181474 39.181474 0 0 1-6.736842-26.246737z"
    fill="#FFFFFF" p-id="945"></path>
  <path
    d="M467.240421 697.856a15.144421 15.144421 0 0 1-5.227789 13.042526 642.371368 642.371368 0 0 1-155.351579 92.698948 9.781895 9.781895 0 0 1-6.521264 1.293473 18.539789 18.539789 0 0 1-7.841684-2.694736 16.518737 16.518737 0 0 1-9.135158-13.042527c0-1.293474-3.907368-44.382316-3.907368-91.378526s3.907368-88.764632 3.907368-91.378526a22.069895 22.069895 0 0 1 9.135158-13.042527 18.539789 18.539789 0 0 1 7.841684-2.694737 9.970526 9.970526 0 0 1 6.521264 2.694737 598.986105 598.986105 0 0 1 155.351579 92.698948 14.174316 14.174316 0 0 1 5.227789 11.802947z"
    fill="#FFFFFF" p-id="946"></path>
</svg>
